<?xml version="1.0" standalone="no"?>
<!DOCTYPE svg PUBLIC "-//W3C//DTD SVG 20010904//EN"
 "http://www.w3.org/TR/2001/REC-SVG-20010904/DTD/svg10.dtd">
<svg version="1.0" xmlns="http://www.w3.org/2000/svg"
 viewBox="0 0 2600.000000 2600.000000"
 preserveAspectRatio="xMidYMid meet">
<metadata>
Created by potrace 1.15, written by Peter Selinger 2001-2017
</metadata>
<g transform="translate(0.000000,2600.000000) scale(0.100000,-0.100000)" stroke="none">
<path d="M13025 21139 c-1151 -51 -2299 -379 -3290 -939 -125 -71 -381 -225
-398 -240 -5 -4 1 -38 13 -76 117 -379 127 -853 25 -1234 -8 -30 -12 -56 -10
-58 2 -2 46 29 97 70 1644 1307 3846 1698 5863 1041 506 -165 1062 -437 1522
-744 86 -58 307 -220 479 -352 29 -22 30 -15 9 63 -54 196 -79 556 -56 780 14
132 43 281 77 400 13 46 24 90 24 96 0 24 -354 235 -655 390 -1131 582 -2415
861 -3700 803z"/>
<path d="M6905 21129 c-675 -73 -1281 -515 -1551 -1129 -121 -276 -171 -537
-161 -844 9 -298 70 -536 203 -797 102 -200 207 -342 375 -504 132 -127 229
-201 397 -302 l34 -20 -134 -43 c-547 -173 -996 -448 -1408 -860 -313 -313
-529 -621 -704 -1006 -188 -413 -285 -830 -310 -1331 l-5 -103 3464 0 3465 0
0 74 c0 208 -46 540 -107 781 -249 976 -914 1797 -1818 2244 -183 90 -346 156
-511 206 -63 19 -118 35 -121 35 -4 0 32 23 79 51 414 247 727 650 858 1108
109 378 102 763 -22 1136 -221 669 -799 1165 -1498 1286 -135 24 -393 32 -525
18z"/>
<path d="M19405 21128 c-332 -33 -683 -173 -960 -382 -411 -310 -681 -784
-746 -1310 -17 -141 -7 -432 20 -563 86 -417 257 -732 552 -1018 132 -128 229
-201 397 -302 l34 -20 -134 -43 c-182 -57 -287 -99 -463 -184 -363 -175 -641
-373 -936 -666 -299 -297 -509 -589 -680 -945 -214 -446 -315 -859 -344 -1397
l-6 -108 3467 0 3467 0 -7 152 c-33 736 -293 1431 -748 1999 -401 501 -910
871 -1508 1094 -98 36 -150 53 -283 91 -13 4 7 20 68 57 394 238 696 614 834
1041 141 433 129 879 -36 1296 -317 804 -1125 1295 -1988 1208z"/>
<path d="M5943 13523 c32 -1260 389 -2489 1040 -3583 621 -1043 1523 -1947
2572 -2576 144 -86 416 -236 421 -231 2 1 35 56 75 122 145 241 303 447 502
651 l128 132 -133 66 c-338 166 -735 416 -1053 664 -306 239 -670 586 -909
867 -947 1112 -1471 2463 -1514 3905 l-7 225 -564 3 -564 2 6 -247z"/>
<path d="M19646 13588 c-26 -708 -130 -1295 -336 -1893 -532 -1543 -1630
-2810 -3085 -3561 -102 -53 -185 -98 -185 -100 0 -3 46 -51 101 -107 200 -202
383 -437 522 -673 40 -68 75 -123 79 -123 14 -1 320 170 478 267 1923 1181
3207 3158 3495 5379 36 283 77 936 61 979 -5 12 -87 14 -565 14 l-559 0 -6
-182z"/>
<path d="M13225 12170 c-421 -30 -820 -197 -1142 -479 -279 -245 -496 -601
-586 -966 -46 -185 -52 -239 -51 -480 0 -209 3 -241 27 -355 54 -255 148 -481
286 -687 162 -242 368 -438 608 -581 46 -28 80 -52 76 -55 -4 -3 -42 -15 -83
-27 -719 -212 -1373 -680 -1822 -1305 -299 -416 -506 -911 -592 -1418 -25
-144 -41 -300 -50 -484 l-5 -103 3466 0 3466 0 -7 151 c-32 722 -282 1398
-732 1979 -115 149 -436 470 -584 584 -347 268 -682 446 -1084 577 -66 22
-125 39 -133 39 -28 0 -11 17 60 58 256 151 510 406 666 667 363 609 356 1368
-19 1980 -138 226 -352 445 -580 595 -349 229 -770 339 -1185 310z"/>
</g>
</svg>
