<?xml version="1.0" encoding="utf-8"?>
<!-- Generator: Adobe Illustrator 28.1.0, SVG Export Plug-In . SVG Version: 6.00 Build 0)  -->
<svg version="1.1" id="Capa_1" xmlns="http://www.w3.org/2000/svg" xmlns:xlink="http://www.w3.org/1999/xlink" x="0px" y="0px"
	 viewBox="0 0 87.8 63.9" style="enable-background:new 0 0 87.8 63.9;" xml:space="preserve">
<path d="M32.8,42.8c0.2-0.3,0.4-0.7,0.6-0.9c13-13,26-26.1,39.1-39.1c3.1-3.1,7.5-3.7,11.1-1.6c4.6,2.8,5.6,9.1,2.2,13.2
	c-0.2,0.3-0.5,0.5-0.7,0.8C69.7,30.5,54.4,45.8,39.1,61.1c-3.1,3.1-7.5,3.7-11.1,1.5c-0.7-0.4-1.3-0.9-1.9-1.5
	c-7.8-7.8-15.6-15.6-23.4-23.4c-4.4-4.3-3.4-11.4,1.7-14.2c3.2-1.7,7.3-1.3,10,1c0.4,0.3,0.7,0.7,1.1,1C21,31,26.5,36.5,32,42
	C32.2,42.2,32.4,42.4,32.8,42.8z"/>
</svg>