<?xml version="1.0" encoding="utf-8"?>
<!-- Generator: Adobe Illustrator 24.2.1, SVG Export Plug-In . SVG Version: 6.00 Build 0)  -->
<svg version="1.1" id="Capa_1" xmlns="http://www.w3.org/2000/svg" xmlns:xlink="http://www.w3.org/1999/xlink" x="0px" y="0px"
	 viewBox="0 0 12.9 12.9" style="enable-background:new 0 0 12.9 12.9;" xml:space="preserve">
<style type="text/css">
	.st0{fill:#FFFFFF;}
</style>
<path class="st0" d="M11.8,5.5H7.7c-0.1,0-0.2-0.1-0.2-0.2V1.2c0-0.6-0.3-1.2-1-1.2s-1,0.5-1,1.2v4.1c0,0.1-0.1,0.2-0.2,0.2H1.2
	C0.5,5.5,0,5.8,0,6.5s0.5,1,1.2,1h4.1c0.1,0,0.2,0.1,0.2,0.2v4.1c0,0.6,0.3,1.2,1,1.2s1-0.5,1-1.2V7.7c0-0.1,0.1-0.2,0.2-0.2h4.1
	c0.6,0,1.2-0.3,1.2-1S12.4,5.5,11.8,5.5z"/>
</svg>
