<?xml version="1.0" encoding="UTF-8"?>
<svg xmlns="http://www.w3.org/2000/svg" version="1.1" viewBox="0 0 255.8 255.6">
  <defs>
    <style>
      .cls-5 {
        fill: #fcc549;
      }
    </style>
  </defs>
  <!-- Generator: Adobe Illustrator 28.6.0, SVG Export Plug-In . SVG Version: 1.2.0 Build 709)  -->
  <g>
    <g id="Capa_1">
      <path class="cls-5" d="M46.6,236.6c2.1-14.6,4.1-28.1,6.1-41.7,1.5-10.3,3.1-20.5,4.5-30.8.1-.8-.6-2-1.2-2.6-13.2-11.8-26.4-23.6-39.6-35.4-3.2-2.9-6.5-5.7-9.7-8.6-5.7-5.3-8-11.8-5.7-19.4,2.4-7.8,7.9-12.1,15.9-13.2,21.8-3,43.6-6,65.4-9,1.7-.2,2.1-1.3,2.6-2.5,8.5-20.3,17-40.6,25.5-60.9,2.8-6.6,7.4-10.9,14.6-12.2,7.5-1.4,15.6,2.3,18.9,9.1,4.3,9.1,8.1,18.6,12,27.9,5.1,12.1,10.1,24.2,15.1,36.3.6,1.5,1.5,2.1,3.1,2.3,15.2,2,30.5,4.2,45.7,6.3,7.2,1,14.3,1.8,21.4,3.1,7.2,1.3,11.8,5.9,13.8,12.9,2,6.9.5,13.2-4.7,18.1-6.4,6.2-13.2,11.9-19.8,17.9-10.1,9-20.2,18.1-30.4,27.1-1.2,1.1-1.7,2-1.4,3.8,3.4,22.7,6.7,45.3,10,68,1.7,11.5-5,20.9-16,22.4-5,.7-9.5-.9-13.6-3.7-16.3-11.1-32.7-22.2-49-33.4-1.6-1.1-2.7-1.1-4.4,0-16.5,11.3-32.9,22.5-49.5,33.7-10.7,7.3-24.4,3.1-28.4-8.7-.8-2.4-.9-5-1.2-6.6Z"/>
    </g>
  </g>
</svg>