<?xml version="1.0" encoding="utf-8"?>
<!-- Generator: Adobe Illustrator 27.7.0, SVG Export Plug-In . SVG Version: 6.00 Build 0)  -->
<svg version="1.1" id="Capa_1" xmlns="http://www.w3.org/2000/svg" xmlns:xlink="http://www.w3.org/1999/xlink" x="0px" y="0px"
	 viewBox="0 0 256.1 255.9" style="enable-background:new 0 0 256.1 255.9;" xml:space="preserve">
<g>
	<path d="M34.7,0c9.9,0.1,18.2,3.8,25.2,10.8c22,22,44,44.1,65.9,66.2c1.8,1.8,2.6,1.6,4.2-0.1c21.8-21.9,43.7-43.7,65.5-65.6
		c7.4-7.5,16.1-11.9,26.7-11.3c14.2,0.8,25,7.4,30.7,20.6c5.7,13.2,3.6,25.8-5.9,36.7c-4.5,5.2-9.7,9.9-14.6,14.7
		c-17.9,17.9-35.8,35.8-53.7,53.6c-1.5,1.5-1.6,2.2,0,3.8c22.2,22.1,44.2,44.3,66.4,66.4c7.1,7.1,10.8,15.4,10.8,25.4
		c-0.1,13.6-8.7,26.7-21.4,31.6c-13.6,5.3-26.5,3.2-37-7.1c-22.8-22.2-45.1-44.8-67.6-67.3c-1.6-1.6-2.4-1.7-4,0
		c-22.1,22.2-44.2,44.3-66.4,66.4c-12.1,12.1-29.9,14-43.9,4.9c-18.4-12-21-37.6-5.3-53.5c13.9-14.1,28-28,42-42
		c8.4-8.4,16.7-16.8,25.1-25c1.4-1.4,1.3-2.1-0.1-3.5c-21.9-21.7-43.6-43.5-65.5-65.2C5.7,54.7,1.4,47.8,0.3,39
		C-1.8,22,9.4,3.7,28.7,0.5C30.7,0.2,32.7-0.1,34.7,0z"/>
</g>
</svg>
